# xmcd CD database file
#
# Track frame offsets:
#	150
#	19670
#	40030
#	58567
#	76443
#	95006
#	112368
#	124166
#	141278
#	153612
#	172517
#	193478
#	212225
#	230205
#	248216
#	267406
#	284013
#	295134
#	313609
#
# Disc length: 4425 seconds
#
# Revision: 0
# Processed by: cddbd v1.5.2PL0 Copyright (c) Steve Scherf et al.
# Submitted via: CDex 1.70beta2
#
DISCID=29114713
DTITLE=Omar Enrique - Exitos, versiones y algo mas
DYEAR=2005
DGENRE=Merengue
TTITLE0=Quiero que seas mi estrella
TTITLE1=Yo no se como perder
TTITLE2=No te olvido
TTITLE3=Dejame hablarte
TTITLE4=Entre tu y yo
TTITLE5=Amor anonimo
TTITLE6=No ha sido facil (bachata)
TTITLE7=Yo no se como perder (bachata)
TTITLE8=Mátame a besos (bachata)
TTITLE9=Te amare
TTITLE10=Necessito de ti
TTITLE11=Quiero que seas mi estrella (salsa)
TTITLE12=Yo no se como perder (salsa)
TTITLE13=Entre tu y yo (salsa)
TTITLE14=No te olvido (balada)
TTITLE15=Entre tu y yo (balada)
TTITLE16=Aqui estoy (balada)
TTITLE17=Quiero que seas mi estrella (en vivo)
TTITLE18=No te olvido (en vivo)
EXTD=YEAR: 2005
EXTT0=
EXTT1=
EXTT2=
EXTT3=
EXTT4=
EXTT5=
EXTT6=
EXTT7=
EXTT8=
EXTT9=
EXTT10=
EXTT11=
EXTT12=
EXTT13=
EXTT14=
EXTT15=
EXTT16=
EXTT17=
EXTT18=
PLAYORDER=
